<svg width="92" height="20" viewBox="0 0 92 20" fill="none" xmlns="http://www.w3.org/2000/svg">
<path d="M17.3678 6.22386C18.401 6.22386 19.3194 6.43706 20.123 6.86347C20.943 7.27347 21.5826 7.91308 22.0418 8.78229C22.5174 9.6515 22.7552 10.7749 22.7552 12.1525V19.7786H18.0812V12.9151C18.0812 11.9639 17.9008 11.2751 17.54 10.8487C17.1792 10.4059 16.6872 10.1845 16.064 10.1845C15.6212 10.1845 15.2194 10.2911 14.8585 10.5043C14.4977 10.7175 14.2189 11.0455 14.0221 11.4883C13.8253 11.9147 13.7269 12.4723 13.7269 13.1611V19.7786H9.05289V12.9151C9.05289 11.9639 8.87249 11.2751 8.51169 10.8487C8.16728 10.4059 7.67528 10.1845 7.03567 10.1845C6.57647 10.1845 6.16646 10.2911 5.80566 10.5043C5.46126 10.7175 5.18245 11.0455 4.96925 11.4883C4.77245 11.9147 4.67405 12.4723 4.67405 13.1611V19.7786H0V6.44526H4.45264V10.1599L3.56704 9.10209C4.05904 8.15088 4.73145 7.43747 5.58426 6.96187C6.43706 6.46986 7.38827 6.22386 8.43788 6.22386C9.6351 6.22386 10.6847 6.53547 11.5867 7.15867C12.5051 7.76548 13.1201 8.71669 13.4317 10.0123L11.9065 9.6925C12.3821 8.61009 13.0955 7.76548 14.0467 7.15867C15.0144 6.53547 16.1214 6.22386 17.3678 6.22386Z" fill="black"/>
<path d="M25.7053 19.7786V6.44526H30.3794V19.7786H25.7053ZM28.0424 4.96925C27.1896 4.96925 26.5007 4.73145 25.9759 4.25584C25.4511 3.78024 25.1887 3.18983 25.1887 2.48463C25.1887 1.77942 25.4511 1.18901 25.9759 0.713407C26.5007 0.237802 27.1896 0 28.0424 0C28.8952 0 29.584 0.229602 30.1088 0.688807C30.6336 1.13161 30.896 1.70562 30.896 2.41082C30.896 3.14883 30.6336 3.76384 30.1088 4.25584C29.6004 4.73145 28.9116 4.96925 28.0424 4.96925Z" fill="black"/>
<path d="M42.1008 6.22386C43.134 6.22386 44.0688 6.43706 44.9052 6.86347C45.7417 7.27347 46.3977 7.91308 46.8733 8.78229C47.3653 9.6515 47.6113 10.7749 47.6113 12.1525V19.7786H42.9372V12.9151C42.9372 11.9639 42.7404 11.2751 42.3468 10.8487C41.9696 10.4059 41.4366 10.1845 40.7478 10.1845C40.2558 10.1845 39.8048 10.2993 39.3948 10.5289C38.9848 10.7421 38.665 11.0783 38.4354 11.5375C38.2058 11.9967 38.091 12.5953 38.091 13.3333V19.7786H33.4169V6.44526H37.8696V10.2337L37.0086 9.12669C37.517 8.15908 38.214 7.43747 39.0996 6.96187C39.9852 6.46986 40.9856 6.22386 42.1008 6.22386Z" fill="black"/>
<path d="M56.4991 20C54.7935 20 53.465 19.5818 52.5138 18.7454C51.5626 17.8926 51.087 16.6134 51.087 14.9077V3.46863H55.7611V14.8585C55.7611 15.3342 55.8923 15.7114 56.1547 15.9902C56.4171 16.2526 56.7533 16.3838 57.1633 16.3838C57.7209 16.3838 58.1965 16.2444 58.5901 15.9656L59.7463 19.2374C59.3527 19.4998 58.8689 19.6884 58.2949 19.8032C57.7209 19.9344 57.1223 20 56.4991 20ZM49.1436 10.4305V6.93727H58.8115V10.4305H49.1436Z" fill="black"/>
<path d="M68.1507 20C66.5763 20 65.1987 19.7048 64.0179 19.1144C62.8535 18.5076 61.9433 17.6876 61.2873 16.6544C60.6477 15.6048 60.3279 14.4157 60.3279 13.0873C60.3279 11.7589 60.6395 10.5781 61.2627 9.5449C61.9023 8.49528 62.7797 7.68348 63.8949 7.10947C65.0101 6.51907 66.2647 6.22386 67.6587 6.22386C68.9708 6.22386 70.168 6.49447 71.2504 7.03567C72.3328 7.56048 73.1938 8.33948 73.8334 9.37269C74.473 10.4059 74.7928 11.6605 74.7928 13.1365C74.7928 13.3005 74.7846 13.4891 74.7682 13.7023C74.7518 13.9155 74.7354 14.1123 74.719 14.2927H64.1655V11.8327H72.2344L70.4632 12.5215C70.4796 11.9147 70.3648 11.3899 70.1188 10.9471C69.8892 10.5043 69.5612 10.1599 69.1348 9.9139C68.7248 9.6679 68.241 9.5449 67.6834 9.5449C67.1257 9.5449 66.6337 9.6679 66.2073 9.9139C65.7973 10.1599 65.4775 10.5125 65.2479 10.9717C65.0183 11.4145 64.9035 11.9393 64.9035 12.5461V13.2595C64.9035 13.9155 65.0347 14.4813 65.2971 14.957C65.5759 15.4326 65.9695 15.8016 66.4779 16.064C66.9863 16.31 67.5931 16.433 68.2984 16.433C68.9544 16.433 69.512 16.3428 69.9712 16.1624C70.4468 15.9656 70.9142 15.6704 71.3734 15.2768L73.8334 17.8352C73.1938 18.5404 72.4066 19.0816 71.4718 19.4588C70.537 19.8196 69.43 20 68.1507 20Z" fill="black"/>
<path d="M83.6391 20C82.1795 20 80.8839 19.7048 79.7523 19.1144C78.6207 18.524 77.7269 17.7122 77.0708 16.679C76.4312 15.6294 76.1114 14.4321 76.1114 13.0873C76.1114 11.7425 76.4312 10.5535 77.0708 9.5203C77.7269 8.48708 78.6207 7.68348 79.7523 7.10947C80.8839 6.51907 82.1795 6.22386 83.6391 6.22386C85.0987 6.22386 86.3943 6.51907 87.5259 7.10947C88.674 7.68348 89.5678 8.48708 90.2074 9.5203C90.847 10.5535 91.1668 11.7425 91.1668 13.0873C91.1668 14.4321 90.847 15.6294 90.2074 16.679C89.5678 17.7122 88.674 18.524 87.5259 19.1144C86.3943 19.7048 85.0987 20 83.6391 20ZM83.6391 16.2854C84.1803 16.2854 84.6559 16.1624 85.0659 15.9164C85.4923 15.6704 85.8285 15.3096 86.0745 14.8339C86.3205 14.3419 86.4435 13.7597 86.4435 13.0873C86.4435 12.4149 86.3205 11.8491 86.0745 11.3899C85.8285 10.9143 85.4923 10.5535 85.0659 10.3075C84.6559 10.0615 84.1803 9.9385 83.6391 9.9385C83.1143 9.9385 82.6387 10.0615 82.2123 10.3075C81.8023 10.5535 81.4661 10.9143 81.2037 11.3899C80.9577 11.8491 80.8347 12.4149 80.8347 13.0873C80.8347 13.7597 80.9577 14.3419 81.2037 14.8339C81.4661 15.3096 81.8023 15.6704 82.2123 15.9164C82.6387 16.1624 83.1143 16.2854 83.6391 16.2854Z" fill="black"/>
</svg>
